<mxfile host="app.diagrams.net" modified="2023-06-13T16:03:04.469Z" agent="Mozilla/5.0 (Windows NT 10.0; Win64; x64) AppleWebKit/537.36 (KHTML, like Gecko) Chrome/114.0.0.0 Safari/537.36" etag="qVxj-yq35wpU4wbEZtKn" version="21.3.8" type="device">
  <diagram id="R2lEEEUBdFMjLlhIrx00" name="Page-1">
    <mxGraphModel dx="2497" dy="904" grid="1" gridSize="10" guides="1" tooltips="1" connect="1" arrows="1" fold="1" page="1" pageScale="1" pageWidth="850" pageHeight="1100" math="0" shadow="0" extFonts="Permanent Marker^https://fonts.googleapis.com/css?family=Permanent+Marker">
      <root>
        <mxCell id="0" />
        <mxCell id="1" parent="0" />
        <mxCell id="Bpq7NevzdVRLnRrdn1vF-2" value="" style="shape=table;startSize=0;container=1;collapsible=0;childLayout=tableLayout;" vertex="1" parent="1">
          <mxGeometry x="30" y="315" width="640" height="40" as="geometry" />
        </mxCell>
        <mxCell id="Bpq7NevzdVRLnRrdn1vF-3" value="" style="shape=tableRow;horizontal=0;startSize=0;swimlaneHead=0;swimlaneBody=0;strokeColor=inherit;top=0;left=0;bottom=0;right=0;collapsible=0;dropTarget=0;fillColor=none;points=[[0,0.5],[1,0.5]];portConstraint=eastwest;" vertex="1" parent="Bpq7NevzdVRLnRrdn1vF-2">
          <mxGeometry width="640" height="40" as="geometry" />
        </mxCell>
        <mxCell id="Bpq7NevzdVRLnRrdn1vF-4" value="CID" style="shape=partialRectangle;html=1;whiteSpace=wrap;connectable=0;strokeColor=inherit;overflow=hidden;fillColor=none;top=0;left=0;bottom=0;right=0;pointerEvents=1;" vertex="1" parent="Bpq7NevzdVRLnRrdn1vF-3">
          <mxGeometry width="80" height="40" as="geometry">
            <mxRectangle width="80" height="40" as="alternateBounds" />
          </mxGeometry>
        </mxCell>
        <mxCell id="Bpq7NevzdVRLnRrdn1vF-5" value="Model" style="shape=partialRectangle;html=1;whiteSpace=wrap;connectable=0;strokeColor=inherit;overflow=hidden;fillColor=none;top=0;left=0;bottom=0;right=0;pointerEvents=1;" vertex="1" parent="Bpq7NevzdVRLnRrdn1vF-3">
          <mxGeometry x="80" width="80" height="40" as="geometry">
            <mxRectangle width="80" height="40" as="alternateBounds" />
          </mxGeometry>
        </mxCell>
        <mxCell id="Bpq7NevzdVRLnRrdn1vF-6" value="CAPACITY" style="shape=partialRectangle;html=1;whiteSpace=wrap;connectable=0;strokeColor=inherit;overflow=hidden;fillColor=none;top=0;left=0;bottom=0;right=0;pointerEvents=1;" vertex="1" parent="Bpq7NevzdVRLnRrdn1vF-3">
          <mxGeometry x="160" width="80" height="40" as="geometry">
            <mxRectangle width="80" height="40" as="alternateBounds" />
          </mxGeometry>
        </mxCell>
        <mxCell id="Bpq7NevzdVRLnRrdn1vF-7" value="Maj_Pilot" style="shape=partialRectangle;html=1;whiteSpace=wrap;connectable=0;strokeColor=inherit;overflow=hidden;fillColor=none;top=0;left=0;bottom=0;right=0;pointerEvents=1;" vertex="1" parent="Bpq7NevzdVRLnRrdn1vF-3">
          <mxGeometry x="240" width="80" height="40" as="geometry">
            <mxRectangle width="80" height="40" as="alternateBounds" />
          </mxGeometry>
        </mxCell>
        <mxCell id="Bpq7NevzdVRLnRrdn1vF-8" value="Assis_Pilot" style="shape=partialRectangle;html=1;whiteSpace=wrap;connectable=0;strokeColor=inherit;overflow=hidden;fillColor=none;top=0;left=0;bottom=0;right=0;pointerEvents=1;" vertex="1" parent="Bpq7NevzdVRLnRrdn1vF-3">
          <mxGeometry x="320" width="80" height="40" as="geometry">
            <mxRectangle width="80" height="40" as="alternateBounds" />
          </mxGeometry>
        </mxCell>
        <mxCell id="Bpq7NevzdVRLnRrdn1vF-11" value="HOST1" style="shape=partialRectangle;html=1;whiteSpace=wrap;connectable=0;strokeColor=inherit;overflow=hidden;fillColor=none;top=0;left=0;bottom=0;right=0;pointerEvents=1;" vertex="1" parent="Bpq7NevzdVRLnRrdn1vF-3">
          <mxGeometry x="400" width="80" height="40" as="geometry">
            <mxRectangle width="80" height="40" as="alternateBounds" />
          </mxGeometry>
        </mxCell>
        <mxCell id="Bpq7NevzdVRLnRrdn1vF-10" value="HOST2" style="shape=partialRectangle;html=1;whiteSpace=wrap;connectable=0;strokeColor=inherit;overflow=hidden;fillColor=none;top=0;left=0;bottom=0;right=0;pointerEvents=1;" vertex="1" parent="Bpq7NevzdVRLnRrdn1vF-3">
          <mxGeometry x="480" width="80" height="40" as="geometry">
            <mxRectangle width="80" height="40" as="alternateBounds" />
          </mxGeometry>
        </mxCell>
        <mxCell id="Bpq7NevzdVRLnRrdn1vF-59" value="LID" style="shape=partialRectangle;html=1;whiteSpace=wrap;connectable=0;strokeColor=inherit;overflow=hidden;fillColor=none;top=0;left=0;bottom=0;right=0;pointerEvents=1;" vertex="1" parent="Bpq7NevzdVRLnRrdn1vF-3">
          <mxGeometry x="560" width="80" height="40" as="geometry">
            <mxRectangle width="80" height="40" as="alternateBounds" />
          </mxGeometry>
        </mxCell>
        <mxCell id="Bpq7NevzdVRLnRrdn1vF-9" value="AIRCRAFT_CREW" style="text;html=1;align=center;verticalAlign=middle;resizable=0;points=[];autosize=1;strokeColor=none;fillColor=none;" vertex="1" parent="1">
          <mxGeometry x="30" y="280" width="130" height="30" as="geometry" />
        </mxCell>
        <mxCell id="Bpq7NevzdVRLnRrdn1vF-12" value="" style="endArrow=none;html=1;rounded=0;" edge="1" parent="1">
          <mxGeometry width="50" height="50" relative="1" as="geometry">
            <mxPoint x="52" y="350" as="sourcePoint" />
            <mxPoint x="92" y="350" as="targetPoint" />
          </mxGeometry>
        </mxCell>
        <mxCell id="Bpq7NevzdVRLnRrdn1vF-13" value="" style="shape=table;startSize=0;container=1;collapsible=0;childLayout=tableLayout;" vertex="1" parent="1">
          <mxGeometry x="50" y="60" width="530" height="40" as="geometry" />
        </mxCell>
        <mxCell id="Bpq7NevzdVRLnRrdn1vF-14" value="" style="shape=tableRow;horizontal=0;startSize=0;swimlaneHead=0;swimlaneBody=0;strokeColor=inherit;top=0;left=0;bottom=0;right=0;collapsible=0;dropTarget=0;fillColor=none;points=[[0,0.5],[1,0.5]];portConstraint=eastwest;" vertex="1" parent="Bpq7NevzdVRLnRrdn1vF-13">
          <mxGeometry width="530" height="40" as="geometry" />
        </mxCell>
        <mxCell id="Bpq7NevzdVRLnRrdn1vF-15" value="LID" style="shape=partialRectangle;html=1;whiteSpace=wrap;connectable=0;strokeColor=inherit;overflow=hidden;fillColor=none;top=0;left=0;bottom=0;right=0;pointerEvents=1;" vertex="1" parent="Bpq7NevzdVRLnRrdn1vF-14">
          <mxGeometry width="106" height="40" as="geometry">
            <mxRectangle width="106" height="40" as="alternateBounds" />
          </mxGeometry>
        </mxCell>
        <mxCell id="Bpq7NevzdVRLnRrdn1vF-16" value="NAME" style="shape=partialRectangle;html=1;whiteSpace=wrap;connectable=0;strokeColor=inherit;overflow=hidden;fillColor=none;top=0;left=0;bottom=0;right=0;pointerEvents=1;" vertex="1" parent="Bpq7NevzdVRLnRrdn1vF-14">
          <mxGeometry x="106" width="106" height="40" as="geometry">
            <mxRectangle width="106" height="40" as="alternateBounds" />
          </mxGeometry>
        </mxCell>
        <mxCell id="Bpq7NevzdVRLnRrdn1vF-17" value="CONTACT_PER" style="shape=partialRectangle;html=1;whiteSpace=wrap;connectable=0;strokeColor=inherit;overflow=hidden;fillColor=none;top=0;left=0;bottom=0;right=0;pointerEvents=1;" vertex="1" parent="Bpq7NevzdVRLnRrdn1vF-14">
          <mxGeometry x="212" width="106" height="40" as="geometry">
            <mxRectangle width="106" height="40" as="alternateBounds" />
          </mxGeometry>
        </mxCell>
        <mxCell id="Bpq7NevzdVRLnRrdn1vF-18" value="ADDRESS" style="shape=partialRectangle;html=1;whiteSpace=wrap;connectable=0;strokeColor=inherit;overflow=hidden;fillColor=none;top=0;left=0;bottom=0;right=0;pointerEvents=1;" vertex="1" parent="Bpq7NevzdVRLnRrdn1vF-14">
          <mxGeometry x="318" width="106" height="40" as="geometry">
            <mxRectangle width="106" height="40" as="alternateBounds" />
          </mxGeometry>
        </mxCell>
        <mxCell id="Bpq7NevzdVRLnRrdn1vF-19" value="PHONES" style="shape=partialRectangle;html=1;whiteSpace=wrap;connectable=0;strokeColor=inherit;overflow=hidden;fillColor=none;top=0;left=0;bottom=0;right=0;pointerEvents=1;" vertex="1" parent="Bpq7NevzdVRLnRrdn1vF-14">
          <mxGeometry x="424" width="106" height="40" as="geometry">
            <mxRectangle width="106" height="40" as="alternateBounds" />
          </mxGeometry>
        </mxCell>
        <mxCell id="Bpq7NevzdVRLnRrdn1vF-20" value="AIRLINE" style="text;html=1;align=center;verticalAlign=middle;resizable=0;points=[];autosize=1;strokeColor=none;fillColor=none;" vertex="1" parent="1">
          <mxGeometry x="45" y="23" width="70" height="30" as="geometry" />
        </mxCell>
        <mxCell id="Bpq7NevzdVRLnRrdn1vF-21" value="" style="endArrow=none;html=1;rounded=0;" edge="1" parent="1">
          <mxGeometry width="50" height="50" relative="1" as="geometry">
            <mxPoint x="82" y="95" as="sourcePoint" />
            <mxPoint x="122" y="95" as="targetPoint" />
          </mxGeometry>
        </mxCell>
        <mxCell id="Bpq7NevzdVRLnRrdn1vF-22" value="" style="shape=table;startSize=0;container=1;collapsible=0;childLayout=tableLayout;" vertex="1" parent="1">
          <mxGeometry x="158" y="558" width="450" height="40" as="geometry" />
        </mxCell>
        <mxCell id="Bpq7NevzdVRLnRrdn1vF-23" value="" style="shape=tableRow;horizontal=0;startSize=0;swimlaneHead=0;swimlaneBody=0;strokeColor=inherit;top=0;left=0;bottom=0;right=0;collapsible=0;dropTarget=0;fillColor=none;points=[[0,0.5],[1,0.5]];portConstraint=eastwest;" vertex="1" parent="Bpq7NevzdVRLnRrdn1vF-22">
          <mxGeometry width="450" height="40" as="geometry" />
        </mxCell>
        <mxCell id="Bpq7NevzdVRLnRrdn1vF-24" value="RID" style="shape=partialRectangle;html=1;whiteSpace=wrap;connectable=0;strokeColor=inherit;overflow=hidden;fillColor=none;top=0;left=0;bottom=0;right=0;pointerEvents=1;" vertex="1" parent="Bpq7NevzdVRLnRrdn1vF-23">
          <mxGeometry width="90" height="40" as="geometry">
            <mxRectangle width="90" height="40" as="alternateBounds" />
          </mxGeometry>
        </mxCell>
        <mxCell id="Bpq7NevzdVRLnRrdn1vF-25" value="Classification" style="shape=partialRectangle;html=1;whiteSpace=wrap;connectable=0;strokeColor=inherit;overflow=hidden;fillColor=none;top=0;left=0;bottom=0;right=0;pointerEvents=1;" vertex="1" parent="Bpq7NevzdVRLnRrdn1vF-23">
          <mxGeometry x="90" width="90" height="40" as="geometry">
            <mxRectangle width="90" height="40" as="alternateBounds" />
          </mxGeometry>
        </mxCell>
        <mxCell id="Bpq7NevzdVRLnRrdn1vF-26" value="ORIGIN" style="shape=partialRectangle;html=1;whiteSpace=wrap;connectable=0;strokeColor=inherit;overflow=hidden;fillColor=none;top=0;left=0;bottom=0;right=0;pointerEvents=1;" vertex="1" parent="Bpq7NevzdVRLnRrdn1vF-23">
          <mxGeometry x="180" width="90" height="40" as="geometry">
            <mxRectangle width="90" height="40" as="alternateBounds" />
          </mxGeometry>
        </mxCell>
        <mxCell id="Bpq7NevzdVRLnRrdn1vF-27" value="DISTANCE" style="shape=partialRectangle;html=1;whiteSpace=wrap;connectable=0;strokeColor=inherit;overflow=hidden;fillColor=none;top=0;left=0;bottom=0;right=0;pointerEvents=1;" vertex="1" parent="Bpq7NevzdVRLnRrdn1vF-23">
          <mxGeometry x="270" width="90" height="40" as="geometry">
            <mxRectangle width="90" height="40" as="alternateBounds" />
          </mxGeometry>
        </mxCell>
        <mxCell id="Bpq7NevzdVRLnRrdn1vF-28" value="DESTINATION" style="shape=partialRectangle;html=1;whiteSpace=wrap;connectable=0;strokeColor=inherit;overflow=hidden;fillColor=none;top=0;left=0;bottom=0;right=0;pointerEvents=1;" vertex="1" parent="Bpq7NevzdVRLnRrdn1vF-23">
          <mxGeometry x="360" width="90" height="40" as="geometry">
            <mxRectangle width="90" height="40" as="alternateBounds" />
          </mxGeometry>
        </mxCell>
        <mxCell id="Bpq7NevzdVRLnRrdn1vF-29" value="ROUTE" style="text;html=1;align=center;verticalAlign=middle;resizable=0;points=[];autosize=1;strokeColor=none;fillColor=none;" vertex="1" parent="1">
          <mxGeometry x="160" y="520" width="70" height="30" as="geometry" />
        </mxCell>
        <mxCell id="Bpq7NevzdVRLnRrdn1vF-30" value="" style="shape=table;startSize=0;container=1;collapsible=0;childLayout=tableLayout;" vertex="1" parent="1">
          <mxGeometry x="-425" y="160" width="600" height="40" as="geometry" />
        </mxCell>
        <mxCell id="Bpq7NevzdVRLnRrdn1vF-31" value="" style="shape=tableRow;horizontal=0;startSize=0;swimlaneHead=0;swimlaneBody=0;strokeColor=inherit;top=0;left=0;bottom=0;right=0;collapsible=0;dropTarget=0;fillColor=none;points=[[0,0.5],[1,0.5]];portConstraint=eastwest;" vertex="1" parent="Bpq7NevzdVRLnRrdn1vF-30">
          <mxGeometry width="600" height="40" as="geometry" />
        </mxCell>
        <mxCell id="Bpq7NevzdVRLnRrdn1vF-32" value="EID" style="shape=partialRectangle;html=1;whiteSpace=wrap;connectable=0;strokeColor=inherit;overflow=hidden;fillColor=none;top=0;left=0;bottom=0;right=0;pointerEvents=1;" vertex="1" parent="Bpq7NevzdVRLnRrdn1vF-31">
          <mxGeometry width="60" height="40" as="geometry">
            <mxRectangle width="60" height="40" as="alternateBounds" />
          </mxGeometry>
        </mxCell>
        <mxCell id="Bpq7NevzdVRLnRrdn1vF-33" value="GENDER" style="shape=partialRectangle;html=1;whiteSpace=wrap;connectable=0;strokeColor=inherit;overflow=hidden;fillColor=none;top=0;left=0;bottom=0;right=0;pointerEvents=1;" vertex="1" parent="Bpq7NevzdVRLnRrdn1vF-31">
          <mxGeometry x="60" width="60" height="40" as="geometry">
            <mxRectangle width="60" height="40" as="alternateBounds" />
          </mxGeometry>
        </mxCell>
        <mxCell id="Bpq7NevzdVRLnRrdn1vF-34" value="YEAR" style="shape=partialRectangle;html=1;whiteSpace=wrap;connectable=0;strokeColor=inherit;overflow=hidden;fillColor=none;top=0;left=0;bottom=0;right=0;pointerEvents=1;" vertex="1" parent="Bpq7NevzdVRLnRrdn1vF-31">
          <mxGeometry x="120" width="60" height="40" as="geometry">
            <mxRectangle width="60" height="40" as="alternateBounds" />
          </mxGeometry>
        </mxCell>
        <mxCell id="Bpq7NevzdVRLnRrdn1vF-35" value="MONTH" style="shape=partialRectangle;html=1;whiteSpace=wrap;connectable=0;strokeColor=inherit;overflow=hidden;fillColor=none;top=0;left=0;bottom=0;right=0;pointerEvents=1;" vertex="1" parent="Bpq7NevzdVRLnRrdn1vF-31">
          <mxGeometry x="180" width="60" height="40" as="geometry">
            <mxRectangle width="60" height="40" as="alternateBounds" />
          </mxGeometry>
        </mxCell>
        <mxCell id="Bpq7NevzdVRLnRrdn1vF-36" value="DAY" style="shape=partialRectangle;html=1;whiteSpace=wrap;connectable=0;strokeColor=inherit;overflow=hidden;fillColor=none;top=0;left=0;bottom=0;right=0;pointerEvents=1;" vertex="1" parent="Bpq7NevzdVRLnRrdn1vF-31">
          <mxGeometry x="240" width="60" height="40" as="geometry">
            <mxRectangle width="60" height="40" as="alternateBounds" />
          </mxGeometry>
        </mxCell>
        <mxCell id="Bpq7NevzdVRLnRrdn1vF-37" value="ADDRESS" style="shape=partialRectangle;html=1;whiteSpace=wrap;connectable=0;strokeColor=inherit;overflow=hidden;fillColor=none;top=0;left=0;bottom=0;right=0;pointerEvents=1;" vertex="1" parent="Bpq7NevzdVRLnRrdn1vF-31">
          <mxGeometry x="300" width="60" height="40" as="geometry">
            <mxRectangle width="60" height="40" as="alternateBounds" />
          </mxGeometry>
        </mxCell>
        <mxCell id="Bpq7NevzdVRLnRrdn1vF-38" value="QUALIF." style="shape=partialRectangle;html=1;whiteSpace=wrap;connectable=0;strokeColor=inherit;overflow=hidden;fillColor=none;top=0;left=0;bottom=0;right=0;pointerEvents=1;" vertex="1" parent="Bpq7NevzdVRLnRrdn1vF-31">
          <mxGeometry x="360" width="60" height="40" as="geometry">
            <mxRectangle width="60" height="40" as="alternateBounds" />
          </mxGeometry>
        </mxCell>
        <mxCell id="Bpq7NevzdVRLnRrdn1vF-39" value="NAME" style="shape=partialRectangle;html=1;whiteSpace=wrap;connectable=0;strokeColor=inherit;overflow=hidden;fillColor=none;top=0;left=0;bottom=0;right=0;pointerEvents=1;" vertex="1" parent="Bpq7NevzdVRLnRrdn1vF-31">
          <mxGeometry x="420" width="60" height="40" as="geometry">
            <mxRectangle width="60" height="40" as="alternateBounds" />
          </mxGeometry>
        </mxCell>
        <mxCell id="Bpq7NevzdVRLnRrdn1vF-40" value="POSITION" style="shape=partialRectangle;html=1;whiteSpace=wrap;connectable=0;strokeColor=inherit;overflow=hidden;fillColor=none;top=0;left=0;bottom=0;right=0;pointerEvents=1;" vertex="1" parent="Bpq7NevzdVRLnRrdn1vF-31">
          <mxGeometry x="480" width="60" height="40" as="geometry">
            <mxRectangle width="60" height="40" as="alternateBounds" />
          </mxGeometry>
        </mxCell>
        <mxCell id="Bpq7NevzdVRLnRrdn1vF-51" value="LID" style="shape=partialRectangle;html=1;whiteSpace=wrap;connectable=0;strokeColor=inherit;overflow=hidden;fillColor=none;top=0;left=0;bottom=0;right=0;pointerEvents=1;" vertex="1" parent="Bpq7NevzdVRLnRrdn1vF-31">
          <mxGeometry x="540" width="60" height="40" as="geometry">
            <mxRectangle width="60" height="40" as="alternateBounds" />
          </mxGeometry>
        </mxCell>
        <mxCell id="Bpq7NevzdVRLnRrdn1vF-41" value="EMPLOYEE" style="text;html=1;align=center;verticalAlign=middle;resizable=0;points=[];autosize=1;strokeColor=none;fillColor=none;" vertex="1" parent="1">
          <mxGeometry x="-435" y="118" width="90" height="30" as="geometry" />
        </mxCell>
        <mxCell id="Bpq7NevzdVRLnRrdn1vF-42" value="" style="endArrow=none;html=1;rounded=0;" edge="1" parent="1">
          <mxGeometry width="50" height="50" relative="1" as="geometry">
            <mxPoint x="-416" y="193" as="sourcePoint" />
            <mxPoint x="-376" y="193" as="targetPoint" />
          </mxGeometry>
        </mxCell>
        <mxCell id="Bpq7NevzdVRLnRrdn1vF-43" value="" style="shape=table;startSize=0;container=1;collapsible=0;childLayout=tableLayout;" vertex="1" parent="1">
          <mxGeometry x="510" y="160" width="300" height="40" as="geometry" />
        </mxCell>
        <mxCell id="Bpq7NevzdVRLnRrdn1vF-44" value="" style="shape=tableRow;horizontal=0;startSize=0;swimlaneHead=0;swimlaneBody=0;strokeColor=inherit;top=0;left=0;bottom=0;right=0;collapsible=0;dropTarget=0;fillColor=none;points=[[0,0.5],[1,0.5]];portConstraint=eastwest;" vertex="1" parent="Bpq7NevzdVRLnRrdn1vF-43">
          <mxGeometry width="300" height="40" as="geometry" />
        </mxCell>
        <mxCell id="Bpq7NevzdVRLnRrdn1vF-45" value="TID" style="shape=partialRectangle;html=1;whiteSpace=wrap;connectable=0;strokeColor=inherit;overflow=hidden;fillColor=none;top=0;left=0;bottom=0;right=0;pointerEvents=1;" vertex="1" parent="Bpq7NevzdVRLnRrdn1vF-44">
          <mxGeometry width="60" height="40" as="geometry">
            <mxRectangle width="60" height="40" as="alternateBounds" />
          </mxGeometry>
        </mxCell>
        <mxCell id="Bpq7NevzdVRLnRrdn1vF-46" value="DATE" style="shape=partialRectangle;html=1;whiteSpace=wrap;connectable=0;strokeColor=inherit;overflow=hidden;fillColor=none;top=0;left=0;bottom=0;right=0;pointerEvents=1;" vertex="1" parent="Bpq7NevzdVRLnRrdn1vF-44">
          <mxGeometry x="60" width="60" height="40" as="geometry">
            <mxRectangle width="60" height="40" as="alternateBounds" />
          </mxGeometry>
        </mxCell>
        <mxCell id="Bpq7NevzdVRLnRrdn1vF-47" value="AMOUNT" style="shape=partialRectangle;html=1;whiteSpace=wrap;connectable=0;strokeColor=inherit;overflow=hidden;fillColor=none;top=0;left=0;bottom=0;right=0;pointerEvents=1;" vertex="1" parent="Bpq7NevzdVRLnRrdn1vF-44">
          <mxGeometry x="120" width="60" height="40" as="geometry">
            <mxRectangle width="60" height="40" as="alternateBounds" />
          </mxGeometry>
        </mxCell>
        <mxCell id="Bpq7NevzdVRLnRrdn1vF-48" value="DESCRIP." style="shape=partialRectangle;html=1;whiteSpace=wrap;connectable=0;strokeColor=inherit;overflow=hidden;fillColor=none;top=0;left=0;bottom=0;right=0;pointerEvents=1;" vertex="1" parent="Bpq7NevzdVRLnRrdn1vF-44">
          <mxGeometry x="180" width="60" height="40" as="geometry">
            <mxRectangle width="60" height="40" as="alternateBounds" />
          </mxGeometry>
        </mxCell>
        <mxCell id="Bpq7NevzdVRLnRrdn1vF-54" value="LID" style="shape=partialRectangle;html=1;whiteSpace=wrap;connectable=0;strokeColor=inherit;overflow=hidden;fillColor=none;top=0;left=0;bottom=0;right=0;pointerEvents=1;" vertex="1" parent="Bpq7NevzdVRLnRrdn1vF-44">
          <mxGeometry x="240" width="60" height="40" as="geometry">
            <mxRectangle width="60" height="40" as="alternateBounds" />
          </mxGeometry>
        </mxCell>
        <mxCell id="Bpq7NevzdVRLnRrdn1vF-49" value="TRANSACTION" style="text;html=1;align=center;verticalAlign=middle;resizable=0;points=[];autosize=1;strokeColor=none;fillColor=none;" vertex="1" parent="1">
          <mxGeometry x="504" y="134" width="110" height="30" as="geometry" />
        </mxCell>
        <mxCell id="Bpq7NevzdVRLnRrdn1vF-50" value="" style="endArrow=none;html=1;rounded=0;" edge="1" parent="1">
          <mxGeometry width="50" height="50" relative="1" as="geometry">
            <mxPoint x="524" y="193" as="sourcePoint" />
            <mxPoint x="564" y="193" as="targetPoint" />
          </mxGeometry>
        </mxCell>
        <mxCell id="Bpq7NevzdVRLnRrdn1vF-52" value="" style="endArrow=none;dashed=1;html=1;dashPattern=1 3;strokeWidth=2;rounded=0;" edge="1" parent="1">
          <mxGeometry width="50" height="50" relative="1" as="geometry">
            <mxPoint x="130" y="189.5" as="sourcePoint" />
            <mxPoint x="170" y="189.5" as="targetPoint" />
          </mxGeometry>
        </mxCell>
        <mxCell id="Bpq7NevzdVRLnRrdn1vF-53" value="" style="curved=1;endArrow=classic;html=1;rounded=0;exitX=1;exitY=0.5;exitDx=0;exitDy=0;entryX=0;entryY=0.5;entryDx=0;entryDy=0;" edge="1" parent="1" source="Bpq7NevzdVRLnRrdn1vF-31" target="Bpq7NevzdVRLnRrdn1vF-14">
          <mxGeometry width="50" height="50" relative="1" as="geometry">
            <mxPoint x="200" y="198" as="sourcePoint" />
            <mxPoint x="-30" y="90" as="targetPoint" />
            <Array as="points">
              <mxPoint x="250" y="198" />
              <mxPoint x="230" y="150" />
              <mxPoint x="200" y="130" />
              <mxPoint x="-30" y="140" />
            </Array>
          </mxGeometry>
        </mxCell>
        <mxCell id="Bpq7NevzdVRLnRrdn1vF-57" value="" style="curved=1;endArrow=classic;html=1;rounded=0;entryX=0.153;entryY=1.048;entryDx=0;entryDy=0;entryPerimeter=0;" edge="1" parent="1" target="Bpq7NevzdVRLnRrdn1vF-14">
          <mxGeometry width="50" height="50" relative="1" as="geometry">
            <mxPoint x="760" y="160" as="sourcePoint" />
            <mxPoint x="810" y="110" as="targetPoint" />
            <Array as="points">
              <mxPoint x="810" y="160" />
              <mxPoint x="330" y="130" />
            </Array>
          </mxGeometry>
        </mxCell>
        <mxCell id="Bpq7NevzdVRLnRrdn1vF-58" value="" style="endArrow=none;dashed=1;html=1;dashPattern=1 3;strokeWidth=2;rounded=0;" edge="1" parent="1">
          <mxGeometry width="50" height="50" relative="1" as="geometry">
            <mxPoint x="760" y="190" as="sourcePoint" />
            <mxPoint x="800" y="190" as="targetPoint" />
          </mxGeometry>
        </mxCell>
        <mxCell id="Bpq7NevzdVRLnRrdn1vF-60" value="" style="curved=1;endArrow=classic;html=1;rounded=0;exitX=0.93;exitY=-0.05;exitDx=0;exitDy=0;exitPerimeter=0;entryX=0.098;entryY=0.964;entryDx=0;entryDy=0;entryPerimeter=0;" edge="1" parent="1" source="Bpq7NevzdVRLnRrdn1vF-3" target="Bpq7NevzdVRLnRrdn1vF-14">
          <mxGeometry width="50" height="50" relative="1" as="geometry">
            <mxPoint x="570" y="290" as="sourcePoint" />
            <mxPoint x="620" y="240" as="targetPoint" />
            <Array as="points">
              <mxPoint x="620" y="290" />
              <mxPoint x="570" y="240" />
            </Array>
          </mxGeometry>
        </mxCell>
        <mxCell id="Bpq7NevzdVRLnRrdn1vF-61" value="" style="endArrow=none;dashed=1;html=1;dashPattern=1 3;strokeWidth=2;rounded=0;" edge="1" parent="1">
          <mxGeometry width="50" height="50" relative="1" as="geometry">
            <mxPoint x="612" y="350" as="sourcePoint" />
            <mxPoint x="652" y="350" as="targetPoint" />
          </mxGeometry>
        </mxCell>
        <mxCell id="Bpq7NevzdVRLnRrdn1vF-62" value="" style="endArrow=none;html=1;rounded=0;" edge="1" parent="1">
          <mxGeometry width="50" height="50" relative="1" as="geometry">
            <mxPoint x="187" y="590" as="sourcePoint" />
            <mxPoint x="227" y="590" as="targetPoint" />
          </mxGeometry>
        </mxCell>
        <mxCell id="Bpq7NevzdVRLnRrdn1vF-63" value="" style="shape=table;startSize=0;container=1;collapsible=0;childLayout=tableLayout;" vertex="1" parent="1">
          <mxGeometry x="70" y="440" width="520" height="40" as="geometry" />
        </mxCell>
        <mxCell id="Bpq7NevzdVRLnRrdn1vF-64" value="" style="shape=tableRow;horizontal=0;startSize=0;swimlaneHead=0;swimlaneBody=0;strokeColor=inherit;top=0;left=0;bottom=0;right=0;collapsible=0;dropTarget=0;fillColor=none;points=[[0,0.5],[1,0.5]];portConstraint=eastwest;" vertex="1" parent="Bpq7NevzdVRLnRrdn1vF-63">
          <mxGeometry width="520" height="40" as="geometry" />
        </mxCell>
        <mxCell id="Bpq7NevzdVRLnRrdn1vF-65" value="CID" style="shape=partialRectangle;html=1;whiteSpace=wrap;connectable=0;strokeColor=inherit;overflow=hidden;fillColor=none;top=0;left=0;bottom=0;right=0;pointerEvents=1;" vertex="1" parent="Bpq7NevzdVRLnRrdn1vF-64">
          <mxGeometry width="74" height="40" as="geometry">
            <mxRectangle width="74" height="40" as="alternateBounds" />
          </mxGeometry>
        </mxCell>
        <mxCell id="Bpq7NevzdVRLnRrdn1vF-66" value="RID" style="shape=partialRectangle;html=1;whiteSpace=wrap;connectable=0;strokeColor=inherit;overflow=hidden;fillColor=none;top=0;left=0;bottom=0;right=0;pointerEvents=1;" vertex="1" parent="Bpq7NevzdVRLnRrdn1vF-64">
          <mxGeometry x="74" width="75" height="40" as="geometry">
            <mxRectangle width="75" height="40" as="alternateBounds" />
          </mxGeometry>
        </mxCell>
        <mxCell id="Bpq7NevzdVRLnRrdn1vF-67" value="PRICE" style="shape=partialRectangle;html=1;whiteSpace=wrap;connectable=0;strokeColor=inherit;overflow=hidden;fillColor=none;top=0;left=0;bottom=0;right=0;pointerEvents=1;" vertex="1" parent="Bpq7NevzdVRLnRrdn1vF-64">
          <mxGeometry x="149" width="74" height="40" as="geometry">
            <mxRectangle width="74" height="40" as="alternateBounds" />
          </mxGeometry>
        </mxCell>
        <mxCell id="Bpq7NevzdVRLnRrdn1vF-68" value="DURATION" style="shape=partialRectangle;html=1;whiteSpace=wrap;connectable=0;strokeColor=inherit;overflow=hidden;fillColor=none;top=0;left=0;bottom=0;right=0;pointerEvents=1;" vertex="1" parent="Bpq7NevzdVRLnRrdn1vF-64">
          <mxGeometry x="223" width="74" height="40" as="geometry">
            <mxRectangle width="74" height="40" as="alternateBounds" />
          </mxGeometry>
        </mxCell>
        <mxCell id="Bpq7NevzdVRLnRrdn1vF-69" value="DEPATURE" style="shape=partialRectangle;html=1;whiteSpace=wrap;connectable=0;strokeColor=inherit;overflow=hidden;fillColor=none;top=0;left=0;bottom=0;right=0;pointerEvents=1;" vertex="1" parent="Bpq7NevzdVRLnRrdn1vF-64">
          <mxGeometry x="297" width="74" height="40" as="geometry">
            <mxRectangle width="74" height="40" as="alternateBounds" />
          </mxGeometry>
        </mxCell>
        <mxCell id="Bpq7NevzdVRLnRrdn1vF-70" value="ARRIVAL" style="shape=partialRectangle;html=1;whiteSpace=wrap;connectable=0;strokeColor=inherit;overflow=hidden;fillColor=none;top=0;left=0;bottom=0;right=0;pointerEvents=1;" vertex="1" parent="Bpq7NevzdVRLnRrdn1vF-64">
          <mxGeometry x="371" width="75" height="40" as="geometry">
            <mxRectangle width="75" height="40" as="alternateBounds" />
          </mxGeometry>
        </mxCell>
        <mxCell id="Bpq7NevzdVRLnRrdn1vF-71" value="NUM_PASS" style="shape=partialRectangle;html=1;whiteSpace=wrap;connectable=0;strokeColor=inherit;overflow=hidden;fillColor=none;top=0;left=0;bottom=0;right=0;pointerEvents=1;" vertex="1" parent="Bpq7NevzdVRLnRrdn1vF-64">
          <mxGeometry x="446" width="74" height="40" as="geometry">
            <mxRectangle width="74" height="40" as="alternateBounds" />
          </mxGeometry>
        </mxCell>
        <mxCell id="Bpq7NevzdVRLnRrdn1vF-72" value="ASSIGNED" style="text;html=1;align=center;verticalAlign=middle;resizable=0;points=[];autosize=1;strokeColor=none;fillColor=none;" vertex="1" parent="1">
          <mxGeometry x="45" y="408" width="90" height="30" as="geometry" />
        </mxCell>
        <mxCell id="Bpq7NevzdVRLnRrdn1vF-73" value="" style="endArrow=none;dashed=1;html=1;dashPattern=1 3;strokeWidth=2;rounded=0;" edge="1" parent="1">
          <mxGeometry width="50" height="50" relative="1" as="geometry">
            <mxPoint x="90" y="470" as="sourcePoint" />
            <mxPoint x="124" y="470" as="targetPoint" />
          </mxGeometry>
        </mxCell>
        <mxCell id="Bpq7NevzdVRLnRrdn1vF-74" value="" style="endArrow=none;dashed=1;html=1;dashPattern=1 3;strokeWidth=2;rounded=0;" edge="1" parent="1">
          <mxGeometry width="50" height="50" relative="1" as="geometry">
            <mxPoint x="162" y="471" as="sourcePoint" />
            <mxPoint x="202" y="471" as="targetPoint" />
          </mxGeometry>
        </mxCell>
        <mxCell id="Bpq7NevzdVRLnRrdn1vF-75" value="" style="curved=1;endArrow=classic;html=1;rounded=0;entryX=0;entryY=0.5;entryDx=0;entryDy=0;" edge="1" parent="1" target="Bpq7NevzdVRLnRrdn1vF-3">
          <mxGeometry width="50" height="50" relative="1" as="geometry">
            <mxPoint x="85" y="440" as="sourcePoint" />
            <mxPoint x="-70" y="340" as="targetPoint" />
            <Array as="points">
              <mxPoint x="135" y="440" />
              <mxPoint x="-160" y="410" />
            </Array>
          </mxGeometry>
        </mxCell>
        <mxCell id="Bpq7NevzdVRLnRrdn1vF-76" value="" style="curved=1;endArrow=classic;html=1;rounded=0;entryX=0.138;entryY=0.07;entryDx=0;entryDy=0;entryPerimeter=0;" edge="1" parent="1" target="Bpq7NevzdVRLnRrdn1vF-23">
          <mxGeometry width="50" height="50" relative="1" as="geometry">
            <mxPoint x="158" y="480" as="sourcePoint" />
            <mxPoint x="208" y="430" as="targetPoint" />
            <Array as="points">
              <mxPoint x="208" y="480" />
              <mxPoint x="260" y="500" />
            </Array>
          </mxGeometry>
        </mxCell>
        <mxCell id="Bpq7NevzdVRLnRrdn1vF-77" value="" style="endArrow=none;html=1;rounded=0;" edge="1" parent="1">
          <mxGeometry width="50" height="50" relative="1" as="geometry">
            <mxPoint x="100" y="491" as="sourcePoint" />
            <mxPoint x="210" y="491" as="targetPoint" />
          </mxGeometry>
        </mxCell>
      </root>
    </mxGraphModel>
  </diagram>
</mxfile>
